<svg width="180" height="180" viewBox="0 0 48 48" fill="none" xmlns="http://www.w3.org/2000/svg">
  <defs>
    <linearGradient id="g" x1="0" y1="0" x2="48" y2="48" gradientUnits="userSpaceOnUse">
      <stop offset="0%" stop-color="#4338CA"/>
      <stop offset="55%" stop-color="#4F46E5"/>
      <stop offset="100%" stop-color="#0EA5E9"/>
    </linearGradient>
    <radialGradient id="glow" cx="40%" cy="30%" r="60%">
      <stop offset="0%" stop-color="rgba(255,255,255,0.18)"/>
      <stop offset="100%" stop-color="rgba(255,255,255,0)"/>
    </radialGradient>
  </defs>
  <rect width="48" height="48" rx="13" fill="url(#g)"/>
  <rect width="48" height="48" rx="13" fill="url(#glow)"/>
  <path d="M11 5 C11 3.3 12.3 2 14 2 L34 2 C35.7 2 37 3.3 37 5 L37 27 C37 28.7 35.7 30 34 30 L27.5 30 L24 36.5 L20.5 30 L14 30 C12.3 30 11 28.7 11 27 Z" fill="white" fill-opacity="0.97"/>
  <line x1="15.5" y1="16" x2="29.5" y2="16" stroke="#4338CA" stroke-width="3" stroke-linecap="round"/>
  <polyline points="25,11 31,16 25,21" fill="none" stroke="#4338CA" stroke-width="3" stroke-linecap="round" stroke-linejoin="round"/>
</svg>
